<svg id="Calque_1" data-name="Calque 1" xmlns="http://www.w3.org/2000/svg" viewBox="0 0 383.32 383.25"><path d="M804.71,1043.54c-4.37-2.07-5.72-5.58-5.69-10.3.15-19.07,0-38.15,0-57.22,0-9.87,1-11.06,11.26-12.38,0-3.11.11-6.32-.08-9.51a3,3,0,0,0-1.7-2c-23.26-9.32-34.42-28.1-39.56-51.24a109.56,109.56,0,0,1-2.22-22.23c-.06-4.94,1.52-9.9,2.37-14.86l1.2,0c-.89-1-1.77-2-2.68-3-9.55-10-19.26-19.89-28.62-30.08-7.55-8.22-13-17.66-14-29.1-.16-1.85-.51-3.89.05-5.56,1.7-5.15-.14-8.79-4.14-11.84A12.15,12.15,0,0,1,719.2,782c-1.43,1.22-2.5,2.24-3.66,3.12-3.23,2.46-7.07,2.43-9.82-.42q-22.35-23.13-44.56-46.4a34.75,34.75,0,0,1-2.41-3.2v-4.49c4.84-5,9.54-10.13,14.6-14.88,2.19-2.06,5-1.35,7,.84s2.37,5,.2,7.39c-2.73,3.06-5.63,6-8.75,9.25l39.06,40.94,62.35-59.75-39.41-41.32c-4.79,4.57-9.38,8.94-14,13.33-7.12,6.82-14.2,13.67-21.35,20.45-3.27,3.11-7.08,2.84-9.21-.55-1.63-2.59-1.19-5,1-7.07,12.69-12.18,25.35-24.39,38.11-36.5,3.75-3.56,7.86-3.23,11.85.84,5,5.07,9.84,10.26,14.71,15.44,9.16,9.71,18.33,19.41,27.41,29.19,4.95,5.33,4.86,7.52-.09,13-.32.36-.6.76-1.13,1.44,2.16,2.28,4.2,4.6,6.45,6.7a3.26,3.26,0,0,0,2.82.51c23.43-9.42,44.44-3.19,64.36,9.92,3.32,2.18,6.39,4.74,9.7,7.2,3.78-3.2,7.48-6.54,11.39-9.59,10.43-8.14,21.85-12.92,35.44-10a3.5,3.5,0,0,0,2.61-.86c2.12-1.91,4.08-4,6.18-6.09-.73-.81-1.4-1.53-2-2.28-3.57-4.12-3.51-8,.42-11.87,6.07-5.92,12.25-11.73,18.39-17.59q13.13-12.53,26.27-25c4.84-4.61,8.57-4.59,13.17.2q31.35,32.67,62.64,65.41c4.24,4.44,4.18,8.39-.24,12.64q-21.06,20.2-42.21,40.33c-7.37,7-9,7.09-16.86.6-2.2,2.07-4.52,4.1-6.61,6.36a3.26,3.26,0,0,0-.57,2.82c9,22.06,4.13,42.47-8.21,61.46-5.09,7.85-12,14.59-18.34,21.54-3.49,3.8-8.38,5.33-13.46,5.85-10,1-17.16-7.15-15.15-17.14a23,23,0,0,1,7.79-12.87c4.36-3.87,8.06-8.27,9.34-14.11.54-2.45.29-5.06.41-7.6l-1.08-.44c-5.87,5.64-11.8,11.23-17.54,17-.69.69-.53,2.35-.54,3.56-.07,21.95,0,43.91-.22,65.86-.13,10.66-2.71,20.76-9.28,29.46-1.41,1.88-2.89,4.08-4.86,5.11-6.27,3.25-5,8.52-4.52,13.73,11.06,2.06,11.24,2.28,11.24,13.91,0,18.59-.12,37.18.1,55.76,0,5-1.53,8.41-6.11,10.39h-18c-3.07-1.7-4.65-4.19-3.56-7.7s3.92-3.72,7-3.64,6.11,0,9.06,0V975.4h-86v56.85h4.25c14.33,0,28.66,0,43,0,4.58,0,7.32,3.25,5.88,7.21-.57,1.57-2.33,2.72-3.54,4.06Zm80.54-81c0-4,.11-7.59,0-11.19a6.63,6.63,0,0,1,4.11-6.85c6.7-3.3,10.76-9,12.58-15.94a67.67,67.67,0,0,0,2.32-16.18c.29-20,.16-39.92.17-59.88,0-4,.28-8-.1-11.93-.41-4.31-3-6.42-6.53-6.17-3.8.27-6,2.81-6,7.12,0,7.61,0,15.22,0,22.83,0,3.87.07,7.74-.08,11.6a5.07,5.07,0,0,1-4.85,5.23,5,5,0,0,1-5.88-4,18.3,18.3,0,0,1-.55-4.79c0-15.71.05-31.43.08-47.15,0-5.86.14-11.73-.05-17.58-.16-4.69-4-7.32-8.22-6-3.46,1.09-4.29,3.65-4.28,7,.06,21.46,0,42.91,0,64.37a37.55,37.55,0,0,1-.14,4.11,5,5,0,0,1-4.44,4.82,5.2,5.2,0,0,1-6.12-3.19,13.57,13.57,0,0,1-.76-5.09q.06-39.11.21-78.21a39.55,39.55,0,0,0-.16-4.49c-.34-3-2.18-4.64-5.09-5.12-4.85-.79-7.65,2.1-7.63,8q.13,39.85.33,79.71a29.11,29.11,0,0,1-.08,3.74c-.44,3.26-2.24,5.23-5.66,5.32-3.08.09-5.31-2-5.74-5.24a29.11,29.11,0,0,1-.09-3.74q0-35.36,0-70.72c0-4.26-2-6.66-5.71-6.86s-6.49,2.34-6.82,6.39c-.11,1.24-.06,2.49-.06,3.74q0,48.83,0,97.67c0,6.7-2.49,8.71-9.11,7.61-10-1.65-17.1-7.15-20.34-16.6-1.86-5.43-2.11-11.41-3-17.15-.35-2.2-.21-4.55-1-6.58-.52-1.4-2.16-3.21-3.39-3.28s-3.1,1.54-3.71,2.87a18.6,18.6,0,0,0-1.5,6.85A81.58,81.58,0,0,0,782,906.27c5.86,18,16.24,31.6,35.37,36.83,3.16.86,4.24,3.23,4.25,6.25,0,4.33,0,8.66,0,13.16ZM727.83,775.16c3,3.11,5.6,5.92,8.29,8.68,2.16,2.21,2.31,4.52,1.51,7.52a30.26,30.26,0,0,0-1.12,10.6c.83,8.54,5.44,15.45,11.12,21.54,9.86,10.59,19.93,21,30,31.36a5.55,5.55,0,0,0,3.83,1.44c6.16-.34,10.87,2.28,13.68,7.41A33.63,33.63,0,0,1,798.56,875c.4,2.76,1.56,4.14,3.89,3.73,2-.35,4.56-1.4,5.45-3,1.43-2.51,1.85-5.61-.73-8.25-7.66-7.86-15.24-15.8-22.83-23.73-3.23-3.37-3.55-6.36-1-8.83s5.79-2.2,8.93.92c4.61,4.56,9,9.31,13.56,14,.72.74,1.54,1.39,2.94,2.64v-4.81c0-14.72,0-29.44,0-44.16,0-8.72,4.35-15.16,11.74-17.74,1.74-.6,3.57-.93,5.77-1.49-4.07-4.34-8-8.45-11.86-12.68q-4.41-4.86.56-9c6.15-5.16,13.14-7.44,21.19-5.92,8.62,1.63,15.17,6.59,21.1,12.7a23.16,23.16,0,0,0,5.89,4.44,3.37,3.37,0,0,0,4.78-4.41,19.49,19.49,0,0,0-3.47-6.09,81.25,81.25,0,0,0-24.25-19.1c-16.24-8.38-32.75-11-49.64-1.71-2.8,1.53-5.21.82-7.45-1.35-3.21-3.12-6.55-6.12-10-9.3Zm242.64-.51L927.22,729.5c-3.18,3-6,5.67-8.77,8.36-2.1,2-4.33,2.24-7.19,1.52-3.43-.86-7.14-1.62-10.59-1.23-11.88,1.35-20,9.12-28,17,12,15.23,6.58,27.85-5.7,30.63.41,1.62.82,3.24,1.22,4.79a13.21,13.21,0,0,0,1.43,0c13.57-2,22.12,5.36,22.16,19.18,0,4.59,0,9.19,0,14.18,9.38-2.21,16.75.33,22,8.37,5.78-5.5,11.25-10.77,16.79-16q5.12-4.78,9.58.66c5.17,6.35,7.22,13.53,5.47,21.66S939.09,853,933.28,858.7a23.31,23.31,0,0,0-4.51,5.84,5,5,0,0,0,.31,4.39c.61.81,2.85,1.09,4,.66a19.8,19.8,0,0,0,6.06-3.52,79.85,79.85,0,0,0,18.74-23.59c8.64-16.41,11.42-33.13,2-50.31-1.53-2.8-.74-5.2,1.41-7.45C964.34,781.58,967.2,778.27,970.47,774.65Zm-42.26-62.11L988,774.89l41.32-39.44c-19.92-20.78-39.71-41.44-59.74-62.35ZM826.67,768.27l10.46,11,9.1-5.18C840.59,769.63,835,765.93,826.67,768.27Zm-26.79,122.2,7.61,8.95.89-.72v-9.19Z" transform="translate(-658.75 -660.29)"/><path d="M754.91,711.15c-1.16,1.38-2.18,3.63-3.81,4.25a6.69,6.69,0,0,1-5.76-.82A129.47,129.47,0,0,1,734,702.78c-2-2.3-1.49-4.93.62-7,1.95-2,4.61-2.83,6.7-.88,4.36,4,8.35,8.5,12.39,12.89C754.28,708.4,754.35,709.55,754.91,711.15Z" transform="translate(-658.75 -660.29)"/><path d="M819.67,1002.28c0-2.5-.1-5,0-7.49.16-3.41,2.17-5.3,5.46-5.33s5.54,1.83,5.65,5.17c.17,5.24.19,10.49,0,15.72-.13,3.27-2.57,5.14-5.84,4.95s-5.11-1.89-5.25-5.17C819.58,1007.52,819.67,1004.9,819.67,1002.28Z" transform="translate(-658.75 -660.29)"/><path d="M1003.29,734c1.32,1.06,3.44,2,4.25,3.67.73,1.47.77,4.35-.2,5.42a136.22,136.22,0,0,1-12.62,12.11c-2.1,1.79-4.79,1.29-6.73-.79s-2.56-4.77-.7-6.79c4-4.37,8.49-8.34,12.85-12.4C1000.72,734.72,1001.72,734.63,1003.29,734Z" transform="translate(-658.75 -660.29)"/></svg>