<svg id="Calque_1" data-name="Calque 1" xmlns="http://www.w3.org/2000/svg" viewBox="0 0 383.3 383.1"><path d="M853.37,1043.54h-15a15.09,15.09,0,0,0-2.5-.59c-23.1-1.7-45.29-7.13-66.1-17.29Q681,982.35,661.74,885.3c-1.39-7.06-2-14.27-3-21.41v-24c.3-2.45.63-4.9.9-7.36,4.47-41,19.78-77.51,47.7-107.93,47-51.18,105.48-71.8,174.15-61.72,39.07,5.74,73.21,23,101.3,50.75,49.85,49.31,68.72,109.1,54.81,177.72C1025.71,950,991.52,993.2,939,1021.78A167.19,167.19,0,0,1,903.57,1036V894.35h41c2.08-16.12,4.12-31.86,6.22-48.11H903.64a17.08,17.08,0,0,1-.26-1.89c0-10.86-.15-21.72.14-32.56.33-12,6.67-18.42,18.66-19,8.59-.41,17.21-.21,25.82-.28h3.93v-43c-15.36-1.27-30.56-2.92-45.69-1.07a71,71,0,0,0-21.76,6.13c-20,9.6-28.69,27-30.22,48.22-.93,12.91-.39,25.93-.51,38.9,0,1.45,0,2.89,0,4.76H812.81v47.82h40.94v4.43q0,70.35,0,140.72C853.73,1040.83,853.49,1042.18,853.37,1043.54Z" transform="translate(-658.75 -660.44)"/></svg>