<svg id="Calque_1" data-name="Calque 1" xmlns="http://www.w3.org/2000/svg" viewBox="0 0 383.37 244.03"><path d="M658.75,886.34c2.39-5,6.37-6.66,11.79-6.61,19.09.17,38.17.06,57.26.06h4.78v-54c-4.49,1.06-9,2.43-13.58,3.15-11.94,1.89-22.13-1.53-29.29-11.49a68.42,68.42,0,0,1-8.05-15.07,15.78,15.78,0,0,1,8.34-20.1,45.63,45.63,0,0,1,23.26-4.38c7.65.65,13.89,4.27,19,10l1.23-.45c-.71-4.78-.8-9.75-2.23-14.3-5.58-17.76,7.73-39.44,26.56-42.42a70.94,70.94,0,0,1,13-.76,16,16,0,0,1,15.86,16.46,61.28,61.28,0,0,1-1.86,14c-4,15.16-14.78,23.19-31.69,24-2.85.14-5.71,0-8.81,0v39.78c.25,0,.7,0,.88-.18,9-9.7,20-11.29,32.25-8.27a62.75,62.75,0,0,1,8.2,2.54,16.39,16.39,0,0,1,9.7,21.11c-.44,1.3-1,2.56-1.53,3.82-9.08,20.61-24.22,27.26-45.6,20.06-1.16-.4-2.35-.74-3.86-1.22v17.4H844.69V826.22c-5.36,1.14-10.49,2.64-15.72,3.27-12.79,1.53-22.68-3.56-29.44-14.38a65.57,65.57,0,0,1-6.14-12.74,15.76,15.76,0,0,1,8.18-19.56c8.16-3.83,16.79-5.6,25.83-4.2,6.67,1,12,4.58,17.54,9.3-.26-4.07.39-8.47-1-12.15-7.37-20.25,6.82-43.08,28.48-45.08a64.38,64.38,0,0,1,11.19-.18c8.81.73,15.31,7.72,15,16.55a62.35,62.35,0,0,1-2.45,15.43c-4,13.46-14,21-28.41,22-3.7.27-7.44,0-11.45,0V824.5c.43-.13.86-.13,1.05-.34,12-13.44,30.85-10.27,42.85-4.07,6.66,3.44,10,11.69,7.16,18.65-2.61,6.36-5.84,12.79-10.18,18C888.66,867.14,877,868,864.7,865.06c-2.76-.66-5.45-1.6-8.38-2.47v17.2h4q15.17,0,30.32,0a14.9,14.9,0,0,1,4.06.4,5.48,5.48,0,0,1-.79,10.67,35.34,35.34,0,0,1-4.49.14H670.27v16.77h360.26V891H923.65a29,29,0,0,1-4.48-.16,5.49,5.49,0,0,1-.64-10.68,17.32,17.32,0,0,1,4.44-.37c11,0,21.94,0,33.25,0V826.54c-4.42,1.06-8.82,2.38-13.31,3.12-12.43,2.05-22.8-1.74-30.08-12.15A65.44,65.44,0,0,1,905.29,803a15.8,15.8,0,0,1,8.54-20,46,46,0,0,1,22.53-4.37c7.85.54,14.26,4.11,20.43,9.77-.26-4.06.43-8.48-.92-12.13-7-18.75,5.59-41.42,25.4-44.71a69.1,69.1,0,0,1,13.41-.79,16,16,0,0,1,15.76,16.57,62.52,62.52,0,0,1-2.63,16.14c-4.37,13.87-15,21-31.07,21.75-2.83.12-5.67,0-8.72,0V825c.29,0,.62.09.72,0,12.17-13.63,30.15-11.05,43.07-4.6a15.29,15.29,0,0,1,7.2,19.58,67.61,67.61,0,0,1-9.26,16.49c-8.34,10.42-19.75,12.14-32.19,9.24-3.12-.73-6.18-1.75-9.58-2.72v16.85h62.56c8.29,0,11.45,3.21,11.46,11.57,0,6,0,12,0,18a9.6,9.6,0,0,1-5.58,9.36,4.84,4.84,0,0,0-2,3.28,60.12,60.12,0,0,0-.11,6.72c-.1,3.23-.28,6,3.75,7.75,2,.87,3.57,4.57,3.75,7.1.5,7.07.28,14.21.14,21.32-.1,5.31-3.71,8.83-9,9.07-1,.05-2,0-3,0H717.49a25.1,25.1,0,0,1-3.36-.06c-3.16-.41-5-2.32-5.1-5.45s1.84-5.1,4.94-5.61a24.47,24.47,0,0,1,4.11-.11h312.4V945.86H670.24v16.86c5.27,0,10.58-.06,15.89,0,3.83,0,6.22,2.22,6.31,5.46a5.44,5.44,0,0,1-5.63,5.69c-6.49.12-13,.1-19.46,0-4.46-.07-6.84-3-8.6-6.7V941c1.19-1.55,2.11-4,3.63-4.46,4.93-1.46,4-5.12,4-8.59,0-2.23.11-4.48-.07-6.7a4.34,4.34,0,0,0-1.27-2.31c-2.06-2.18-4.21-4.27-6.33-6.39Zm19.12,33.13v14.7h345v-14.7Zm31.7-131.12c-4.66,1.23-9.39,2.25-14,3.77-3.35,1.12-4.65,4-3.14,7.19a79.38,79.38,0,0,0,7.12,12.58A13.81,13.81,0,0,0,711.83,818a80.2,80.2,0,0,0,16-3.06c3.13-.88,4.51-3.81,3-6.92A74,74,0,0,0,724,795.72C720.65,791,715.65,788.81,709.57,788.35Zm281.88,37.44c-6.54.36-11.69,2.92-15.29,8a63.55,63.55,0,0,0-6,11.08c-1.72,3.89-.49,6.48,3.59,7.87a57.41,57.41,0,0,0,10.82,2.74c7.53,1,13.85-1.54,18.11-7.94a66.44,66.44,0,0,0,5.68-10.87c1.38-3.27.12-6-3.27-7.15C1000.59,828,996,827,991.45,825.79Zm-240.81-52.5c14.58-.15,21.93-6,24.21-19.14,2.06-11.89-.06-14.16-12.05-12.91-11.4,1.19-17.36,6.25-19.91,17a43,43,0,0,0-.93,5.52C741.15,771.54,742.83,773.37,750.64,773.29ZM933,789.11c-4.65,1.26-9.4,2.25-13.93,3.85-3.07,1.08-4.43,3.79-3,7a74.79,74.79,0,0,0,5.68,10.87c4,6,9.82,8.88,17,8a65.91,65.91,0,0,0,12.64-3c3.3-1.08,4.54-4,3.08-7.23a68.58,68.58,0,0,0-6.4-11.73C944.53,791.9,939.4,789.49,933,789.11ZM762.89,855.48c4.81-.48,9-1.65,12.57-4.8,4.71-4.19,7.51-9.59,9.44-15.44,1-2.94-.45-5.31-3.17-6.37-16.31-6.33-26.77-4-34.08,12.1-.51,1.14-1,2.28-1.42,3.45-1.15,3.39-.2,6.19,3.06,7.31C753.73,853.25,758.35,854.25,762.89,855.48Zm100.3-81.94c13.27-.45,19.93-4.95,22.76-15.7a54.16,54.16,0,0,0,1.47-10.32c.23-3.55-1.69-5.84-5.27-5.86a64.47,64.47,0,0,0-12.95,1.07A16.61,16.61,0,0,0,856,754.63a66.36,66.36,0,0,0-2.37,12.78c-.37,3.71,1.75,5.79,5.46,6.11C860.44,773.64,861.82,773.54,863.19,773.54Zm111.07.38a31.38,31.38,0,0,0,3.36,0c7.55-.87,14.9-2.73,18-10.51,2-5,2.76-10.5,3.56-15.86.46-3.12-1.66-5.38-4.8-5.56-18.66-1.05-27.26,5.49-28.76,23.15C965,772.56,966.68,774.12,974.26,773.92ZM826,819.12c4.42-1.16,8.92-2.1,13.25-3.54,3.54-1.18,5-4.09,3.4-7.44a76.22,76.22,0,0,0-7.43-12.8,14.94,14.94,0,0,0-13.86-5.91,68.93,68.93,0,0,0-13.76,3c-3.53,1.1-4.75,4-3.18,7.51a67.07,67.07,0,0,0,6.48,11.67C814.44,816.59,819.63,818.84,826,819.12ZM875.81,856c3.35-1.36,7.44-2.31,10.68-4.51,5.44-3.68,8.16-9.61,10.17-15.7,1.05-3.19-.43-5.76-3.61-6.77a73.33,73.33,0,0,0-11.18-2.77c-7.41-1.15-13.59,1.38-17.88,7.54a61.2,61.2,0,0,0-5.82,10.78c-1.56,3.62-.24,6.51,3.48,7.73C866,853.75,870.49,854.66,875.81,856Z" transform="translate(-658.75 -729.96)"/></svg>