<svg id="Calque_1" data-name="Calque 1" xmlns="http://www.w3.org/2000/svg" viewBox="0 0 336.84 336.84"><path d="M850.48,1020.33c-93,.09-168.52-75.42-168.52-168.41s75.51-168.5,168.49-168.43a168.44,168.44,0,0,1,168.34,168.22C1019,944.64,943.52,1020.23,850.48,1020.33Zm93.46-168.21q0-17.22,0-34.43c-.05-34.08-25.29-59.28-59.39-59.29q-34.62,0-69.23,0c-32.78,0-58.35,25.53-58.45,58.36q-.12,35.18,0,70.36c.1,32.82,25.59,58.25,58.46,58.34q35.17.09,70.36,0c32.65-.1,58.1-25.55,58.24-58.16C944,875.57,943.94,863.85,943.94,852.12Z" transform="translate(-681.96 -683.49)"/><path d="M850.24,924.61c-11.22,0-22.45,0-33.67,0-23.11-.05-38.81-15.67-38.84-38.68q0-34,0-68.11c0-22.77,15.76-38.5,38.59-38.56s45.41-.06,68.11,0c22.87,0,38.58,15.72,38.63,38.52s.06,45.65,0,68.48c-.06,22.6-15.77,38.26-38.39,38.34C873.2,924.65,861.72,924.61,850.24,924.61Zm0-120.55a47.85,47.85,0,1,0,48,47.73A48.08,48.08,0,0,0,850.26,804.06Zm50.44,5.24a8,8,0,1,0-8.19-7.89A8,8,0,0,0,900.7,809.3Z" transform="translate(-681.96 -683.49)"/><path d="M879.48,851.82a29.08,29.08,0,1,1-29.16-29A29.27,29.27,0,0,1,879.48,851.82Z" transform="translate(-681.96 -683.49)"/></svg>