<svg id="Calque_1" data-name="Calque 1" xmlns="http://www.w3.org/2000/svg" viewBox="0 0 512 512"><path d="M1107,835.79v32a28.87,28.87,0,0,0-.83,3.86c-3.38,44.07-17,84.73-41.77,121.31-40.79,60.31-97.1,97.47-168.82,110.85-9.44,1.77-19.05,2.67-28.58,4H835a27.12,27.12,0,0,0-3.84-.83c-51-4.07-96.89-21.54-137.09-53.14-51.73-40.67-83.67-93.5-95.24-158.41-1.63-9.14-2.57-18.41-3.83-27.62v-32c.74-6.09,1.37-12.2,2.23-18.27,7.32-52.06,28.26-97.93,63.56-136.89,39.54-43.65,88.42-70.89,146.61-81,9.15-1.58,18.4-2.59,27.6-3.86h32a28.89,28.89,0,0,0,3.84.82c38.64,2.89,74.94,13.72,108.17,33.58,67.81,40.53,109.46,99.66,124.06,177.48C1104.81,817,1105.71,826.41,1107,835.79ZM850.7,955c30.41-1.41,61-2.7,91.61-4.34,8.62-.46,17.27-1.65,24.8-6.62,11.1-7.34,15.23-18.46,16.8-31a452.83,452.83,0,0,0,0-114.09c-3-23.85-14.55-35.35-38.58-37.23-21.07-1.65-42.22-3.39-63.32-3.31-39.79.14-79.57,1.36-119.34,2.6a68.55,68.55,0,0,0-22.4,4.34c-14.85,5.81-20.34,18.66-22.2,33.54a454.7,454.7,0,0,0,0,114.09c2.7,21.33,12.9,33.06,31.66,36.42a81,81,0,0,0,10.4,1.29C790.23,952.24,820.33,953.62,850.7,955Z" transform="translate(-595 -595.79)"/><path d="M893.69,860.32l-67.87,42.41v-84.8Z" transform="translate(-595 -595.79)"/></svg>