<svg id="Calque_1" data-name="Calque 1" xmlns="http://www.w3.org/2000/svg" viewBox="0 0 383.23 347.38"><path d="M658,1010.6v-6.74c4.88-11.57,9-14.27,21.59-14.28h8.11V809c-16.8-1.39-24.36-14-23.87-28,.66-19.31.24-38.66.11-58,0-5.77.59-11.2,4.59-15.59-4.13-6.61-5.2-10.46-4.28-15.23,1.75-9.06,8.9-14.6,18.93-14.6h332.69c.75,0,1.5,0,2.24,0a17.75,17.75,0,0,1,13.39,28.61c1.43,4.92,3.54,8.89,3.59,12.88.33,22.2.26,44.41.11,66.61a23.37,23.37,0,0,1-18.45,22.54c-1.67.38-3.4.5-5.25.76V989.63c4.55,0,8.89-.17,13.22,0a17.46,17.46,0,0,1,16,21.57c-2.17,8.68-9,13.56-19,13.56q-171,0-342,.11C668.82,1024.92,661.47,1021.08,658,1010.6ZM921.58,800.67c-5.13,5.16-11,8.05-18.14,8s-12.85-3.18-17.91-8.06c-5.12,5.29-11,8.07-18.16,8.06s-12.85-3.21-17.74-8c-12.19,10.71-22.06,10.71-36,.24-10.66,10-24.37,10.82-36.07,0-9.42,9.14-23.35,11.7-36.21-.22-4.76,5.37-11,7.84-17.93,8.17V989.31h24.4v-60C737.62,926,736,923.64,736,912.72c0-1.87,0-3.74,0-5.61,0-9,4.5-13.45,13.61-13.53h5.33c-2.61-11.86,1.7-19.53,12.31-23.74-2.54-8.11-1.11-15.19,5.51-20.37,7.6-6,15.49-4.85,23,.53,6.92-5.13,14.16-6.23,21.38-1.57,7.86,5.07,9.44,12.67,7.1,21.27,11.77,6.52,14,10.82,12.36,23.57H850c0-3.91-.16-7.52.05-11.1.15-2.56,1.2-5.1,1.13-7.63-.15-5.44-1.06-10.86-1.12-16.29-.08-8.15,4.63-12.62,12.84-12.64q25.64-.06,51.27,0c8.51,0,13,4.64,13.1,13.27,0,3.44,0,6.88,0,10.67h4.2c9.51.12,13.78,4.49,13.8,14.13v9.91c2.26,0,4,0,5.71,0,7.44.22,12.11,4.85,12.27,12.21.08,3.75.12,7.49,0,11.23-.2,5.05-2.58,8.79-7.29,10.82a36.33,36.33,0,0,1-4.48,1.32v60.15h24.28V808.82a24.55,24.55,0,0,1-18-8.13C945.55,812.33,931.14,810.35,921.58,800.67Zm18.3,128.39H759.43v60.55c4.23,0,8.2-.11,12.17,0a5.33,5.33,0,0,1,5.52,5.38,5.51,5.51,0,0,1-5.22,5.73,29.08,29.08,0,0,1-3.37.06h-89.8a33.3,33.3,0,0,0-3.74.08,6.33,6.33,0,0,0-5.73,5.92,6.43,6.43,0,0,0,5.38,6.64,19.77,19.77,0,0,0,3.36.11h343.12a27.08,27.08,0,0,0,3-.06,6.42,6.42,0,0,0,5.88-6.57,6.32,6.32,0,0,0-6-6.07c-1.36-.12-2.74-.06-4.11-.06h-220c-7.08,0-9.92-1.65-9.86-5.72s2.75-5.51,9.64-5.51H939.88ZM849.44,701.51h165c6.47,0,9.52-2,9.58-6.28s-3.09-6.47-9.4-6.47h-330c-1.12,0-2.25-.07-3.36,0a6.34,6.34,0,0,0,.2,12.67c1.24.09,2.49,0,3.74,0ZM747.39,917.27H951.81v-12.2H747.39Zm240.54-156c.06-1.13.12-1.86.12-2.59,0-9,0-18,0-26.93,0-3.75,2.31-6.22,5.52-6.25s5.5,2.45,5.66,6.17c.09,1.87,0,3.74,0,5.61,0,7.94,0,15.88,0,23.9H1024c0-13.58,0-26.9,0-40.22,0-6.08-2.22-8.24-8.42-8.25q-24.32,0-48.63,0c-1.09,0-2.18.09-3.45.16V761.3ZM700,712.77c-6.53,0-12.61-.14-18.68.06a6.08,6.08,0,0,0-6,6.39c-.06,13.83,0,27.65.07,41.48,0,.2.28.39.35.48h59.93V713H711.19v4.25c0,8.47,0,16.94,0,25.42,0,2.82-1.19,5.29-3.85,5.63a9.2,9.2,0,0,1-6.16-2.07c-1-.82-1.16-3.18-1.17-4.85C699.91,732,700,722.67,700,712.77Zm294.12,88.3c-6.68,2.4-6.9,7.38-6.89,13.06q.22,85.32.09,170.64v4.57h12.76V906.46q0-48.65.05-97.3c0-2.32-.41-4-2.58-5.2A20.78,20.78,0,0,1,994.09,801.07ZM712,989.47V953q0-71.85,0-143.7c0-1.39-.16-3.14-1-4.07a34.62,34.62,0,0,0-5-4.1c-6.46,2.51-6.84,7.46-6.82,13.34.19,56.76.11,113.51.11,170.27v4.78Zm35.42-228.24h24.3V713.05h-24.3Zm60.24.07V713H783.43V761.3Zm36,0V713H819.44V761.3Zm36.07,0V713H855.52V761.3Zm36,0V713H891.55V761.3Zm36,0V713H927.55v48.35ZM861.25,881c0,3,.19,5.88,0,8.68-.27,3.15.93,4,4,3.95,21.66-.12,43.32-.06,65-.07,1.2,0,2.4-.14,3.66-.22V881Zm.25-11.74h54.33V857.1H861.5ZM675.37,772.91c0,4.88-.38,9.61.1,14.25.59,5.69,5.57,9.9,11.16,10.25,6,.38,11.54-2.92,12.65-8.74,1-5.11.62-10.47.85-15.76Zm323.93,0c0,4.48-.1,8.57,0,12.66a12.11,12.11,0,0,0,11.18,11.87c6.55.48,12.4-3.59,13.21-10,.6-4.72.12-9.58.12-14.53Zm-36,0c0,4.37-.11,8.56,0,12.74a12.09,12.09,0,0,0,10.51,11.7c6.47.77,12.36-2.72,13.52-9,.93-5,.61-10.25.85-15.47Zm-252,0c0,4.78-.32,9.26.07,13.68a12,12,0,0,0,11.79,10.86c6.05.18,11.7-3.77,12.44-9.59.61-4.85.12-9.84.12-15Zm144.32,0c0,5.19-.44,10.19.12,15.08.6,5.24,5.7,9.12,11.09,9.4,5.83.31,11.48-3.1,12.48-8.58.94-5.17.68-10.55,1-15.9Zm-36.1-.09c0,5.09-.4,9.84.1,14.49a11.52,11.52,0,0,0,10.53,10c5.9.58,11.63-2.37,12.86-7.91,1.18-5.31.91-10.94,1.29-16.61Zm-47.58.16h-24.7c0,4.53-.25,8.76,0,13A12.17,12.17,0,0,0,760,797.45c6.69-.17,11.71-5.29,11.9-12.29C772,781.32,771.93,777.47,771.93,773Zm143.85-.08H891.34c0,4.42-.15,8.62,0,12.81a12,12,0,0,0,11.31,11.68c6.59.39,12.15-3.64,13-10.2C916.24,782.61,915.78,777.87,915.78,772.93Zm-132.8,0c.23,5.31,0,10.3.78,15.14.88,5.68,6,9.38,11.78,9.41s11.23-3.77,11.94-9.24c.64-5,.13-10.07.13-15.31Zm144.35,0c0,4.34-.1,8.43,0,12.5a12.08,12.08,0,0,0,11,12c6.72.55,12.48-3.53,13.34-10.23.58-4.6.11-9.34.11-14.24ZM789.89,863a6.15,6.15,0,0,0-6.51-6.14,6.3,6.3,0,0,0,.27,12.6A6.22,6.22,0,0,0,789.89,863Zm-12,24.2a6.1,6.1,0,0,0-6.31-6.33,6.35,6.35,0,0,0-6.35,6,6.53,6.53,0,0,0,6.23,6.6A6.31,6.31,0,0,0,777.89,887.22Zm17.81,6.3a6.31,6.31,0,0,0,6.19-6.53,6.07,6.07,0,0,0-6.17-6.09,6.32,6.32,0,0,0-6.47,6.26A6.47,6.47,0,0,0,795.7,893.52ZM813.89,863a6.16,6.16,0,0,0-6.51-6.14,6.3,6.3,0,0,0,.29,12.59A6.21,6.21,0,0,0,813.89,863Zm12,24a6.14,6.14,0,0,0-6.47-6.17,6.3,6.3,0,0,0-6.15,6.19,6.41,6.41,0,0,0,6.36,6.43A6.29,6.29,0,0,0,825.89,887.06Z" transform="translate(-658 -677.53)"/><path d="M849.61,941.6c11.6,0,23.19-.05,34.78,0,10.94.06,18.78,7.37,18.87,17.46s-8,17.73-19,17.74c-23.43,0-46.87.07-70.3,0a17.58,17.58,0,0,1-4.63-34.62,26.49,26.49,0,0,1,6.3-.55C826.93,941.57,838.27,941.6,849.61,941.6Zm.42,11.23c-11.46,0-22.92,0-34.38,0a11.83,11.83,0,0,0-5,.86,5.63,5.63,0,0,0-3.08,6.89c.93,3.79,3.73,5,7.32,5H884c5,0,8-2.44,8-6.38s-2.93-6.36-8-6.37C872.7,952.81,861.36,952.83,850,952.83Z" transform="translate(-658 -677.53)"/></svg>