<svg id="Calque_1" data-name="Calque 1" xmlns="http://www.w3.org/2000/svg" viewBox="0 0 378.46 509.55"><path d="M725.06,624c8.29-8.38,16.08-16.31,23.93-24.18,4.42-4.44,9.72-4.41,14.22.09,8.09,8.1,16.13,16.25,25,25.22,3.91-4.16,7.56-8.14,11.33-12,4.28-4.4,8.66-8.71,13-13,4.71-4.69,9.93-4.74,14.61-.08,8.1,8.08,16.16,16.2,24.69,24.76,8-8.07,15.84-15.92,23.67-23.77,6-6,10.49-6.06,16.38-.15,7.82,7.84,15.62,15.71,23.74,23.87L940,600.38c5.24-5.22,10.18-5.26,15.34-.09,7.73,7.73,15.44,15.49,23.47,23.54,6-8.05,12-15.54,17.44-23.43,3-4.38,7.32-4.65,10.86-3.11,2.14.93,3.82,5.3,3.89,8.17.36,16.09.13,32.2.22,48.3a19.82,19.82,0,0,0,1.08,6.78c12.17,31.8,18.86,64.88,23.08,98.53a687,687,0,0,1,4.79,123.23c-1.26,23.17-3.86,46.27-6,69.4-.5,5.38-3.9,8.22-8.48,7.72s-6.86-3.86-6.34-9.49c1.73-18.5,4-37,5.28-55.49a690.69,690.69,0,0,0-1.8-111.4c-3.28-34.74-8.7-69.09-19.37-102.44-4.49-14-4.49-14-19.34-14q-136.71,0-273.42-.09c-4.12,0-6,1.14-7.41,5.12-10,28.11-15.78,57.17-19.63,86.65a713.58,713.58,0,0,0-4.88,130.19c2.45,46.16,8,91.86,22.67,136C705,1035,705,1035,715.84,1035q138.69,0,277.4.09c3.92,0,6-.9,7.1-4.84,3.9-14.21,8-28.36,12.11-42.52a22.17,22.17,0,0,1,1.95-5.59c2-3.25,5.32-4,8.73-2.73,3.92,1.52,5.59,4.77,4.44,8.84-4.81,17.05-9.82,34-14.66,51.08a36.21,36.21,0,0,0-1.67,9.16c-.16,15.61-.11,31.21,0,46.82,0,4.42-.57,8.49-5.42,10.07-4.69,1.52-7.4-1.47-9.89-4.83-5.52-7.46-11.12-14.87-17.09-22.83-7.76,7.79-15.32,15.42-22.91,23-6.92,6.93-9.44,6.91-16.42-.08-7.73-7.73-15.45-15.48-24.52-24.57-3.41,4-6.47,7.89-9.84,11.48-4.32,4.6-8.88,9-13.35,13.41-6.55,6.52-9.31,6.55-15.72.15q-10.21-10.2-20.42-20.43c-1.15-1.15-2.38-2.23-4-3.7-6.25,6.31-12.33,12.38-18.33,18.52-13.21,13.52-13.2,14.1-26.64.16-6-6.2-12.13-12.25-18.65-18.83l-21.2,21.25c-1.53,1.53-3,3.09-4.59,4.57-4.52,4.27-8,4.31-12.49-.1-8.24-8.14-16.38-16.38-24.79-24.8-5.75,7.65-11.25,14.91-16.68,22.24-2.66,3.59-5.39,7.12-10.58,5.27-4.83-1.72-5.11-5.88-5.09-10.26q.14-23.65,0-47.31a19.55,19.55,0,0,0-1.11-6.77c-12.9-33.52-19.56-68.46-23.8-104a726.18,726.18,0,0,1-3.85-127.75c2.72-47.83,8.73-95.16,24.86-140.6a66.06,66.06,0,0,0,4-24.21c-.32-13.11-.07-26.23-.09-39.34,0-3.49.38-7.21,4.22-8.08s7.66-1,10.56,3.22C712.88,608.16,718.87,615.7,725.06,624Zm31.33-9.86a8.4,8.4,0,0,0-1.3.79c-8,8-16,16-24,23.9-5.6,5.53-9.67,5.24-14.35-.93-2.74-3.6-5.43-7.22-8.89-11.82v25.32h288V627.48c-.6.14-1,.11-1.18.3-2.64,3.41-5.23,6.86-7.86,10.28-4.57,5.93-8.61,6.19-14,.91-2.37-2.32-4.7-4.69-7-7l-18-18.14-23.33,23.38c-7.5,7.51-9.78,7.53-17.14.15-7.7-7.72-15.39-15.47-23.47-23.58-8.72,8.78-16.95,17.17-25.3,25.43-4.88,4.84-8.39,4.79-13.24,0-5.68-5.6-11.38-11.17-16.85-17-2.7-2.84-4.91-6.14-7.55-9.51-9.59,9.68-17.61,17.85-25.72,25.94-5.56,5.55-8.74,5.51-14.28,0C772.76,630.54,764.69,622.43,756.39,614.1Zm63.52,473.83c8.28-8.34,16-16.11,23.69-23.86,7-7,9.55-7,16.44-.14,7.82,7.83,15.59,15.71,23.81,24,8.74-8.82,17-17.21,25.3-25.5,4.82-4.79,8.37-4.78,13.26,0,5.46,5.34,10.81,10.79,16.22,16.18,3,3,6,6,9.19,9.14,8.14-8.18,15.73-15.83,23.35-23.47s10.73-7.37,17.3,1.38c2.2,2.94,4.43,5.87,7.39,9.8v-25.17h-288v25.19c3.17-4.19,5.63-7.42,8.07-10.66,5.72-7.6,9.27-7.88,16-1.18,7.95,7.94,15.88,15.92,24.11,24.18,8.41-8.43,16.48-16.53,24.57-24.61,5.86-5.85,8.85-5.92,14.63-.14C803.35,1071.15,811.37,1079.32,819.91,1087.93Z" transform="translate(-662.64 -596.4)"/><path d="M995.17,850.93c-.17,78.84-64.6,143.22-143.3,143.17-79-.06-143.48-64.74-143.25-143.68s64.81-143.1,143.52-142.91S995.34,772.27,995.17,850.93ZM859.58,978.15C911.48,978,977.37,932.38,980,854.63c2.4-71.06-54.47-132-128.36-132.09-73-.06-132.18,62.33-127.9,134.58,4.67,78.84,71.62,121,120,121,3.89-21.91-1.76-46.09-13.22-57.19-3.57,1.89-6.95,4.06-10.6,5.55-26.55,10.84-59.2-3.27-70.65-30.61-8.27-19.74-9.69-40.5-8.16-61.57.41-5.63,2.67-7.65,8.81-8,18.35-1.08,36.52,0,54.12,5.81,30.46,10,47.8,41.4,38.06,69.88-2.12,6.18.22,9.27,3.06,12.35,5.05-14.39,10.18-28.84,15.1-43.36.41-1.21-.2-3.16-1-4.32a56,56,0,0,1,13.33-77c17-12.41,36.57-18.46,56.92-22.34,5.15-1,7.81,1,9.56,6.46,4.94,15.4,8,31.14,8,47.39.07,18.1-5.08,34.12-18.93,46.41-15.9,14.1-34.06,18.41-54.38,11.42C857.22,910.43,858.74,944.31,859.58,978.15Zm-37.5-70.06c-11-9.55-21.12-18.8-31.76-27.42-6.8-5.51-14.55-9.85-21.45-15.25a11.49,11.49,0,0,1-3.92-7.75c-.06-1.9,2.63-5.06,4.61-5.55a12,12,0,0,1,8.25,1.65A264.84,264.84,0,0,1,825,890.85c1.13,1.11,2.31,2.15,3.67,3.4,3.9-15.71-4-34.48-18.32-42.86-16.81-9.8-35.49-10.5-54.84-10.5-.2,16.18.89,31.59,6.37,46.42,5.22,14.16,15.44,22.93,29.83,26.71C802,916.7,811.77,915.38,822.08,908.09Zm46.81-55.17c6.36-9.48,12.16-19,18.8-27.82,6.84-9.14,14.38-17.77,21.87-26.4,3.57-4.13,8-4.3,11.33-1.14s2.94,7.44-.63,11.47c-.66.74-1.37,1.44-2,2.18a273.65,273.65,0,0,0-35.44,49.07c-.85,1.51-1.55,3.11-2.49,5,2.41.62,4.14,1.22,5.91,1.5,19.56,3.12,40.51-11.22,44.23-31.41,1.66-9,1.45-18.48.81-27.66-.58-8.25-2.91-16.39-4.52-24.83-4.73,1.26-8.44,2.12-12.06,3.23-12.56,3.87-24.76,8.57-35.11,17C864.71,815.2,859.74,838.24,868.89,852.92Z" transform="translate(-662.64 -596.4)"/></svg>