<svg id="Calque_1" data-name="Calque 1" xmlns="http://www.w3.org/2000/svg" viewBox="0 0 336.98 383.24"><path d="M723.12,1043.54c-2.92-1.62-3.94-4-3.91-7.4a172.76,172.76,0,0,1,5.42-41.8,22.76,22.76,0,0,0,.72-5.51c0-14.72.16-29.44,0-44.16-.17-16.29,6.43-28.61,20.71-36.67a6.19,6.19,0,0,0,.87-.68c.09-.08.12-.21-.65.14-6-10.6-11.86-21.23-18-31.74-.53-.92-2.4-1.45-3.66-1.48-24.83-.59-43.76-20.64-42.6-45.39a41.83,41.83,0,0,1,9.1-24.09,10.06,10.06,0,0,0,2.08-3.83c7.85-35.89,9.4-39.63,30.72-73.27a72,72,0,0,1-13.06-26.48,81.35,81.35,0,0,1-1.89-9.52c-2.28-19.11,11.87-33.1,31-31.19,12.53,1.26,25.1,2.29,37.68,2.73,25.67.91,51.37,1.31,77,2a156.18,156.18,0,0,1,81.14,25l.93.62c3.66,2.42,4.74,5.5,3,8.42s-5.19,3.28-9.15.93c-4.71-2.79-9.38-5.7-14.26-8.17-21.18-10.75-43.75-15.71-67.44-15.72-35.19,0-70.33-1.08-105.41-4.06-2.23-.19-4.46-.53-6.7-.63-10.32-.43-17.73,7.14-16.76,17.38a59.31,59.31,0,0,0,13.31,32.36c4.71,5.81,4.73,6.72.25,12.54a145.19,145.19,0,0,0-26.35,54.43c-.28,1.16-.48,2.35-.71,3.45,5-1.1,9.75-2,14.38-3.26,1-.26,1.82-1.74,2.3-2.84,3.94-9,7.18-18.35,11.77-27,8.16-15.36,23.89-22.41,41-19.16,8.07,1.54,16.11,3.27,24.06,5.33a7.77,7.77,0,0,1,4.66,4.07c1.62,4.1-2.21,7.65-6.9,6.68-7.81-1.61-15.57-3.43-23.39-5-12.72-2.55-23.59,2.52-30,13.83-40.4,71.69,1.95,162.89,83,178.66,67.23,13.09,132.09-32.4,142.83-100.27a120.33,120.33,0,0,0-9.25-69c-4.21-9.48-12.47-13.64-22.58-11.2-21.56,5.21-43.35,8-65.58,7.16-17.91-.7-35.37-4.05-52.69-8.39-3.63-.9-5.54-3.76-4.8-6.82.8-3.31,3.73-4.77,7.64-4,13.09,2.44,26.12,5.46,39.31,7.06,24.15,2.94,48,.19,71.6-5.46,17.88-4.3,30.8,2.05,38.1,18.89,2.12,4.91,3.65,10.06,5.6,15a4.29,4.29,0,0,0,2.18,2.51c4.65,1.22,9.38,2.14,14.93,3.36-2.33-7.27-4.25-14.46-6.92-21.35a145.2,145.2,0,0,0-36.53-54.08c-4.2-3.95-5-7.06-2.53-9.86,2.67-3,5.76-2.57,10.21,1.67,25.93,24.72,42,54.67,48.06,90a17.9,17.9,0,0,0,3,7c9.76,13.91,11.87,28.75,4.56,44.16-7.5,15.8-20.62,23.87-38.05,24.67a4.82,4.82,0,0,0-4.76,3c-5.54,10.26-11.36,20.36-17.22,30.75l1.4.87c12.6,7.7,19.2,18.93,19.35,33.71.16,15-.25,29.94.18,44.9.17,5.89,2.23,11.69,2.92,17.6,1.22,10.38,2,20.81,3.06,31.21a7,7,0,0,1-3.86,7.41Zm246.73-11.33C972.33,1006.82,954,958.16,938,948v3.81c0,13.2.13,26.4-.07,39.6-.07,4.07.55,7.4,3.83,10.18a18.92,18.92,0,0,1,3.87,5.44c4.37,8,5.74,16.27,2.39,25.16ZM762.21,948.89l-1-.3c-21,23.76-29.34,52.19-30.75,83.54h22.11c-4-12.77-.49-23.51,8.47-32.86a4.18,4.18,0,0,0,1.1-2.6C762.23,980.74,762.21,964.82,762.21,948.89Zm43.52.05a6.72,6.72,0,0,0-.27,1.2c0,15.33-.06,30.65,0,46a6.23,6.23,0,0,0,1.77,3.77,33.85,33.85,0,0,1,8.43,14.76,26.88,26.88,0,0,1-.8,17.47h8.37c2.53-15.76,5-31.35,7.53-46.95a9.18,9.18,0,0,0,.34-2.95,8.82,8.82,0,0,0-1.4-3.57,27.26,27.26,0,0,1-5.5-16.35c0-2.73,0-5.45,0-8.18Zm79.93,83.22c-3.89-12.55-.66-23.15,8-32.48a6.54,6.54,0,0,0,1.15-4.08c.08-14.35.05-28.69,0-43,0-1.06-.16-2.12-.26-3.33l-18.08,4.94c0,2.81.37,5.6-.09,8.25-.74,4.24-.91,9.27-3.34,12.38-4.08,5.22-3.31,10.23-2.3,15.72.5,2.69.9,5.41,1.33,8.11,1.79,11.16,3.57,22.31,5.37,33.52Zm-166-231.71c-14.95,1-27.22,16.49-26.43,32.71.76,15.81,15,29.83,30.22,29.24A135.87,135.87,0,0,1,719.66,800.45ZM981,800.29a137.69,137.69,0,0,1-3.62,62.23c15.57-.12,29-13.22,30.1-28.81C1008.66,817.52,997.05,802.49,981,800.29Zm-64.31,232v0c4.23,0,8.48.12,12.71,0,5.53-.18,9.23-4.17,9.24-9.68,0-11.36-9.71-21-21.37-21.16s-21.69,9-22,20.39c-.21,6.46,3.44,10.37,9.87,10.48C909,1032.36,912.84,1032.31,916.71,1032.31Zm-133.09,0c4.24,0,8.48.11,12.71,0,5.58-.19,9.18-4.07,9.2-9.67,0-11.58-9.79-21.17-21.66-21.18s-21.78,9.61-21.78,21.13c0,5.52,3.68,9.52,9.19,9.71C775.39,1032.41,779.51,1032.29,783.62,1032.29Zm10.58-41.52c0-14.76,0-30.06-.07-45.36a3.2,3.2,0,0,0-1.47-2.23c-5-2.93-10.18-5.72-15.28-8.56-3.24,1.16-4.06,3.51-4,6.94.19,15.2.09,30.4.09,45.59v3.62Zm132.55.1c0-17.47,0-35.14-.06-52.81,0-2.67-2.63-3.68-5.09-2.29-4.11,2.33-8.16,4.8-12.38,6.9-2.29,1.14-3.24,2.43-3.21,5.09.15,13.46.06,26.91.08,40.37,0,1.08.12,2.16.15,2.74Zm-67.67-2.69H841.67l-7,44h31.36C863.69,1017.25,861.36,1002.54,859.08,988.18Zm-91.44-60.79c-3.56-3.28-7-6.18-10.08-9.4-1.63-1.69-3-1.7-4.88-.78-8.13,3.94-14.13,10.08-15.18,19-1,8.65-.22,17.5-.22,26.47A118.66,118.66,0,0,1,767.64,927.39ZM964,962.48c0-7.81.56-15.67-.14-23.42-.91-10-6.48-17.33-15.64-21.68-1-.47-2.71-.81-3.32-.29-3.92,3.35-7.63,7-11.53,10.59C946,937.39,955.64,949.19,964,962.48Zm-98.91-6.27H835.65c-.65,7.2-.38,14.07,6.37,18.66a13.9,13.9,0,0,0,15.86.53C865.24,971,865.82,964,865.09,956.21Z" transform="translate(-681.99 -660.3)"/><path d="M909.75,805a19.09,19.09,0,0,1,19,17.92c.17,3.48-1.76,6.1-4.8,6.51-3.28.44-5.66-1.55-6.33-5.3-.93-5.16-3.7-7.93-7.89-7.86s-6.72,2.75-7.65,8.08c-.61,3.46-3,5.44-6.18,5.09s-5.06-2.87-5-6.37C891.13,813.37,899.77,805.09,909.75,805Z" transform="translate(-681.99 -660.3)"/><path d="M790.92,805a19.12,19.12,0,0,1,18.9,17.62c.25,3.7-1.69,6.42-4.87,6.81s-5.67-1.62-6.29-5.37c-.81-5-3.44-7.66-7.55-7.78s-7,2.66-8,7.77c-.68,3.82-3,5.79-6.27,5.38s-5.14-3.12-4.86-6.81A19.08,19.08,0,0,1,790.92,805Z" transform="translate(-681.99 -660.3)"/><path d="M850.33,851.51A23.8,23.8,0,0,1,833,844.13c-2.8-2.89-3-6.19-.61-8.56s5.37-2.16,8.28.4c6.65,5.86,12.76,5.84,19.51-.06,2.88-2.52,6-2.62,8.28-.27s2.11,5.58-.47,8.3A23.82,23.82,0,0,1,850.33,851.51Z" transform="translate(-681.99 -660.3)"/></svg>