<svg id="Calque_1" data-name="Calque 1" xmlns="http://www.w3.org/2000/svg" viewBox="0 0 383.26 317.42"><path d="M658.75,831.7c4.58-9.13,7.24-11.1,16.81-12.26-.62-1.29-1.24-2.48-1.77-3.7-5.16-11.72-4.81-23.26,1.4-34.48a5.88,5.88,0,0,0,.26-6.17,45.68,45.68,0,1,1,83.9-35.86c.3.8.63,1.6.81,2h23.36c-3.25-9.67-9.95-15.77-20.12-18.1-1-.22-2-.3-2.95-.5-3.81-.79-5.66-3.12-5.17-6.47s3.05-4.93,7-4.51c10.88,1.16,19.5,6.37,26.31,14.93,3-4.17,5.75-8.4,8.91-12.31,9.29-11.51,22.37-16.2,36.12-19.56,2.17-.53,4.38-1,6.59-1.34,6.62-1.1,11.28,3,10.17,9.63-2.61,15.54-6.88,30.44-18.91,41.76a1.3,1.3,0,0,0-.22.52l14.82,10.37c3.91-3.73,7.89-7.83,12.23-11.52a14.07,14.07,0,0,1,6.84-3.3,6.72,6.72,0,0,0,5.12-2.86,61.66,61.66,0,0,1,20.24-17.45c2-1.08,2.78-2.16,2.61-4.56-.62-8.9,4.82-16.07,12.91-17.45,8.56-1.45,16,3.62,18.5,12.55.25.89,1.07,2.19,1.77,2.28a71.36,71.36,0,0,1,29.21,11.15c6.44-9.57,14.82-16.28,25.83-19.51a45.68,45.68,0,0,1,47.13,74.12,7.38,7.38,0,0,0-1.93,7.32c2.28,10.8,0,20.77-6.3,29.81-.69,1-1.4,1.94-2.5,3.45h6.08c12.39,0,18.21,5.88,18.21,18.38v69.23q0,30.31,0,60.63c0,10.9-6.28,17.16-17.16,17.19h-11.35c0,4.14,0,8.07,0,12,0,8.8-4.63,13.46-13.34,13.46q-29.94,0-59.87,0h-1.13c-3.8-.11-6.26-2.19-6.37-5.38-.12-3.35,2.4-5.79,6.37-5.81,13.59-.07,27.19,0,40.79,0h22v-14H695.71v14H912.55a21.5,21.5,0,0,1,4.1.13c3.06.61,4.93,2.52,4.78,5.73s-2.06,5-5.21,5.33a27.12,27.12,0,0,1-3,0H698.42c-10,0-14.23-4.29-14.24-14.38V985c-10.73.9-21.07.53-25.43-11.87Zm371.76,91.21V881.08H755.2c-5.91,0-8.78-1.94-8.65-5.83s2.77-5.4,8.63-5.4h275.59c0-11.29,0-22.12,0-33,0-4.65-1.32-5.94-6-5.94H675.92c-4.67,0-5.93,1.29-5.94,6q0,14.79,0,29.57c0,1.06.15,2.12.23,3.28h56.14a31.09,31.09,0,0,1,3.74.06c3,.34,4.82,2,5.07,5,.26,3.23-1.46,5.2-4.49,5.95a16,16,0,0,1-3.73.17H670.28v41.83Zm.26,11.55H670v32c0,6.71.78,7.49,7.49,7.49h348.32c3.17,0,5-1.57,5-4.77C1030.79,957.69,1030.77,946.23,1030.77,934.46Zm-71.9-114.74c11.6,0,23.2.14,34.8-.1a19.75,19.75,0,0,0,8.48-2.17,26,26,0,0,0,13.3-29.07c-1.6-6.5-.21-11.51,4.3-16.36a34.42,34.42,0,1,0-55.32-40.27c-2.91,5-6.62,8.23-12.57,8.64-18.13,1.25-29.39,16.8-24.81,34.4,1.74,6.69.16,11.9-5.41,16.12a16.75,16.75,0,0,0-6.72,17.18c.59,3.21,2.65,6.12,3.76,9.26.72,2.06,1.94,2.43,3.9,2.41C934.68,819.68,946.78,819.72,958.87,819.72Zm-120.5-54.91C827,752.73,810,748.81,795,754.75a10.37,10.37,0,0,1-8.23.23c-14.48-5.76-27.92-3.39-40,6.17-11.91,9.43-18.06,22.28-20.62,37a64.07,64.07,0,0,0-.17,21.31h90.78C816.05,798.06,827.85,781.79,838.37,764.81Zm-124.61,54.9c.39-7.75.14-15.05,1.23-22.15,3.24-21.07,12.87-38.4,31.56-49.69,2.88-1.73,3-3.15,1.9-5.87a34.78,34.78,0,0,0-45.83-18.43,34.18,34.18,0,0,0-17.28,46.1c3,6.29,2.86,11.62-.57,17.61a26.06,26.06,0,0,0,3.49,30.26c.87.93,2.16,2.05,3.27,2.08C699,819.8,706.45,819.71,713.76,819.71Zm228.47-89.25.14-1.31c-5.84-1.5-11.62-3.42-17.54-4.39-7.07-1.16-9.51-2.93-11.07-10-.88-4-3-5.75-6-5.09-2.79.62-3.94,3-3.38,6.86,1,6.69-.49,9.67-6.44,12.65A58.07,58.07,0,0,0,878.14,746c-1.72,2.2-1.95,4-.91,6.72,8.28,21.48,14.24,43.33,9,66.85h20.45c-.21-.68-.34-1.27-.57-1.82-5.66-13.73-2.77-26.11,8.54-35.59a4,4,0,0,0,1.4-4.85,35.58,35.58,0,0,1-.08-19.91C919.86,743.68,928.88,735,942.23,730.46ZM843,819.56c2.18-10.22,4.22-20.2,6.49-30.13,1-4.49,4-6.45,7.34-5.42s4.39,3.93,3.43,8.24c-2,9-3.86,18-5.89,27.47,6.71,0,12.55.1,18.38-.12.82,0,2-1.54,2.3-2.57,2.72-9.55,2.27-19.23.77-28.9a143.94,143.94,0,0,0-10.67-35.34c-19.45,18.64-36.52,38-37.29,66.77Zm-46.37-78.37c6.68,0,13.12.09,19.55-.07a7.46,7.46,0,0,0,4-1.57c11.3-8.34,15.65-20.5,18.19-33.61,0-.15-.27-.37-.42-.56C810,709.89,797.05,728.85,796.64,741.19Z" transform="translate(-658.75 -693.23)"/><path d="M696.1,900.63a5.79,5.79,0,0,1-5.68,5.72,5.67,5.67,0,0,1-5.48-5.5,5.46,5.46,0,0,1,5.26-5.62A5.58,5.58,0,0,1,696.1,900.63Z" transform="translate(-658.75 -693.23)"/><path d="M1018.94,900.7a5.59,5.59,0,0,1-5.65,5.65,5.79,5.79,0,0,1-5.44-5.58,5.53,5.53,0,0,1,5.74-5.54A5.34,5.34,0,0,1,1018.94,900.7Z" transform="translate(-658.75 -693.23)"/><path d="M690.53,856a5.55,5.55,0,0,1-5.59-5.71,5.44,5.44,0,0,1,5.51-5.35,5.58,5.58,0,0,1,5.64,5.28A5.69,5.69,0,0,1,690.53,856Z" transform="translate(-658.75 -693.23)"/><path d="M1018.94,850.62a5.39,5.39,0,0,1-5.47,5.38,5.6,5.6,0,0,1-5.61-5.7,5.55,5.55,0,0,1,5.92-5.33A5.33,5.33,0,0,1,1018.94,850.62Z" transform="translate(-658.75 -693.23)"/><path d="M690.32,959a5.47,5.47,0,0,1-5.38-5.51,5.64,5.64,0,0,1,5.72-5.62,5.8,5.8,0,0,1,5.44,5.6A5.59,5.59,0,0,1,690.32,959Z" transform="translate(-658.75 -693.23)"/><path d="M1013.26,947.91a5.6,5.6,0,0,1,5.67,5.25,5.36,5.36,0,0,1-5.31,5.87,5.51,5.51,0,0,1-5.75-5.14A5.76,5.76,0,0,1,1013.26,947.91Z" transform="translate(-658.75 -693.23)"/><path d="M981,755.14c5.22-7.1,10.06-14,15.35-20.61a7.79,7.79,0,0,1,6-2.39c1.54.18,3.57,2.42,4,4.11s-.57,3.86-1.61,5.38c-4,5.75-8.17,11.3-12.28,16.94-.72,1-1.39,2-2.56,3.66,3.5-.5,6.26-.9,9-1.28,3.65-.51,6.47,1.26,7.08,4.44s-1.44,5.88-5.12,6.53c-6,1.05-12.05,1.9-18.06,2.9-1,.18-2.42.42-3,1.14-3.57,4.59-7,9.33-10.88,14.67l8.77-1.36c4-.61,6.87,1.08,7.44,4.37s-1.37,6-5.37,6.67c-5.76,1-11.58,1.71-17.31,2.87a10.78,10.78,0,0,0-4.76,2.83c-1.52,1.43-2.45,3.47-3.94,5a5.13,5.13,0,0,1-7.13.54c-2.45-1.77-3.53-5-1.58-6.87,7.66-7.27,4-15.55,2.9-23.66-.21-1.61-.51-3.2-.71-4.81-.43-3.44,1.41-6.17,4.46-6.68,3.25-.54,5.74,1.18,6.52,4.62.35,1.57.5,3.2.78,4.79.25,1.42.56,2.82,1,4.9,3.74-5.1,7.22-9.61,10.39-14.34.69-1,.5-2.86.3-4.27-.78-5.54-1.76-11.06-2.6-16.6-.6-4,1.14-6.88,4.4-7.44,3.49-.61,6,1.56,6.71,5.78.39,2.33.77,4.67,1.17,7A7.61,7.61,0,0,0,981,755.14Z" transform="translate(-658.75 -693.23)"/></svg>