<svg id="Calque_1" data-name="Calque 1" xmlns="http://www.w3.org/2000/svg" viewBox="0 0 383.43 383.17"><path d="M658.75,880.35c3.36-7.07,5.44-8.27,13.47-7.57,6,.52,11.93,1.07,17.88,1.7a34.94,34.94,0,0,1,31.75,35.06c0,.7,0,1.39,0,1.27,6-2.39,11.92-5.29,18.14-7,5-1.36,10.37-1.24,15.58-1.76,2.61-.26,5.21-.65,7.82-.72,5.59-.15,9.86,3.39,10,8.9.22,9,.52,18-.29,26.92-1.1,12.09-11.7,28.44-33.33,30-5.84.41-11.65,1.14-17.75,1.75v11.34H844.74V973c0-9.73-.16-19.46.08-29.19.09-3.37-1.18-4.18-4.24-4.4a191.58,191.58,0,0,1-19.31-2.12,34.27,34.27,0,0,1-27.91-31c-.53-7.95-.41-16-.21-23.94.17-6.75,4.66-10.42,11.39-9.79,7.2.68,14.44,1.12,21.58,2.23,17.67,2.77,29.69,16.83,30,34.71,0,.61,0,1.23,0,1.8.4.11.74.3.83.21,9.18-8.21,20.76-8.26,32-9.41,2.72-.28,5.45-.65,8.19-.77,5.92-.24,10.33,3.33,10.54,9.23.29,8.22.6,16.51-.18,24.68-1.7,18-15.12,30.26-33.89,31.87-5.71.49-11.4,1.14-17.39,1.74v11.54H909a25.56,25.56,0,0,1,4.11.17,5.08,5.08,0,0,1,4.58,5.09,5,5,0,0,1-4,5.57,21.3,21.3,0,0,1-5.18.43q-115.84,0-231.67,0c-6.83,0-6.91.08-6.91,6.9q0,14,0,28.07c0,4.94.7,5.63,5.62,5.63H1024c6.4,0,6.74-.35,6.74-6.77q0-14.22,0-28.45c0-4.8-.58-5.38-5.42-5.38q-41.92,0-83.84,0a22.41,22.41,0,0,1-4.1-.2c-3.09-.59-4.89-2.48-4.75-5.72s2-5,5.22-5.27c1.11-.11,2.24-.09,3.36-.09h37.55V940c-6.14-.66-12.29-1.47-18.47-2-19-1.51-32.76-16.06-33-35-.07-6.73-.08-13.47,0-20.21.09-7,4.43-10.87,11.31-10.23,7.2.66,14.44,1.11,21.57,2.22,17.64,2.76,29.53,16.52,30,34.3,0,.83.09,1.65.11,1.85,5.45-2.32,10.67-5.53,16.32-6.72,8.25-1.73,16.79-2.2,25.24-2.83,5.18-.38,9.67,3.22,9.84,8.24.32,9.09.84,18.31-.3,27.27-2.19,17.12-15.18,28.42-33.07,30.17-5.83.57-11.66,1.16-17.83,1.78v11.62h3.81c10.73,0,21.46,0,32.19,0,9.48,0,15.37,6,15.41,15.44s-.33,19.23.11,28.81c.41,9-2.65,15.48-11.33,18.8H670a18.46,18.46,0,0,1-11.23-11.23V991.89c3-8.42,8.91-11.95,17.83-11.5,8.08.4,16.2.08,24.3.08h9.4V940c-6.38-.66-12.55-1.34-18.73-2-15-1.49-25.08-9.41-30.6-23.28-1-2.39-1.48-5-2.2-7.44Zm205.53,76.47c4.87-.57,8.72-.89,12.52-1.48,9.18-1.44,17.78-8.73,18.94-17.8,1-8,.21-16.34.21-24.89-7.19.82-14.8.86-22,2.69-14.58,3.73-20.26,16.4-17.42,33.19,4.33-4.79,8.48-9.42,12.67-14,3-3.32,6.15-3.83,8.79-1.57s2.58,5.66-.53,9.15C873.37,946.74,869.2,951.35,864.28,956.82ZM844.61,920c0-5,.25-8.87-.05-12.67-.72-8.93-5.33-15.6-13.31-19.35-8.39-3.93-17.68-2.82-26.8-4.08,0,7.56-.22,14.52.07,21.46.27,6.58,3.62,11.76,8.48,16.06,6.5,5.75,14.54,5.54,23.33,6.24-3.69-4.12-6.82-7.59-9.94-11.07-1.16-1.3-2.37-2.56-3.49-3.89-2.57-3.05-2.57-6.43,0-8.6s5.76-1.75,8.52,1.26C835.56,909.9,839.68,914.53,844.61,920Zm-82.79-7.27c-6.89.71-13.66,1-20.26,2.17-13.85,2.47-22.62,14.78-19.12,34,1.06-1.35,1.75-2.37,2.56-3.27,3.67-4.08,7.31-8.2,11.1-12.16a5.42,5.42,0,0,1,7.73-.58c2.35,2,2.59,5.37.51,8.06-.76,1-1.67,1.85-2.5,2.78l-11.7,13c4.76-.55,8.59-.86,12.38-1.45,9.4-1.47,17.85-8.7,19.09-18.09C762.65,929.34,761.82,921.17,761.82,912.72Zm268.71,0c-6.55.68-13,1.17-19.35,2C994.59,917,987.32,932,991,948.27c4.33-4.79,8.54-9.54,12.85-14.2,2.76-3,6-3.28,8.54-1s2.46,5.3-.1,8.3-5.32,5.93-8,8.9c-1.73,1.94-3.44,3.89-5.72,6.48,4.6-.51,8.2-.79,11.75-1.34,10.48-1.64,18.87-9.38,20-19.78C1031.2,928.19,1030.53,920.55,1030.53,912.69Zm-320,7.32c0-4.55.1-7.91,0-11.25-.34-9.76-5-17-13.79-20.94-8.29-3.77-17.46-2.71-26.61-4,0,5.83.2,11,0,16.25-.79,17.34,11.61,28.67,31.51,27-1-1.16-1.78-2.21-2.66-3.19-3.5-3.89-7.28-7.57-10.39-11.75a7.81,7.81,0,0,1-.93-6.38c.52-1.44,3.18-2.73,5-2.87,1.5-.1,3.44,1.26,4.64,2.5C701.5,909.92,705.57,914.59,710.49,920Zm259.06,7.9.29-1-11.74-13q-5.34-6-1.1-9.7c2.76-2.43,5.92-1.68,9.54,2.31,2.86,3.13,5.69,6.29,8.53,9.43l3.9,4.26c0-4.73.24-8.36,0-12-.77-9.8-5.52-17.62-14.78-20.62-8-2.59-16.73-2.83-25.58-4.17,0,7.51-.09,14,0,20.43.17,9.78,6.63,18.9,16,21.7C959.4,926.94,964.55,927.15,969.55,927.91Z" transform="translate(-658.75 -660.37)"/><path d="M896.48,774.09c-1.9-6.64-3.68-12.56-5.28-18.53a57,57,0,0,1-2.1-9.83c-.66-8,3-14,10.17-17.5,6.5-3.15,12.93-6.47,19.59-9.24,3.74-1.55,5-3.48,5-7.66-.1-28.17,23.06-51.32,51.22-51,20.71.27,36.53,9.78,45.81,28.32s7.34,37-4.87,53.92c-1.62,2.25-1.63,3.59-.08,5.74,4.82,6.67,9.1,13.74,14.17,20.2,8.57,10.92,1.93,22.94-7,27.09-15.37,7.12-30.6,14.51-45.9,21.77-13.38,6.35-26.79,12.65-40.15,19.06a19.54,19.54,0,0,1-14.51,1.4c-6-1.82-9.52-6-11-12-.8-3.26-1-7.48-3.2-9.33s-6.32-1.29-9.62-1.57c-11.43-.94-22.86-1.88-34.3-2.59a17.52,17.52,0,0,0-6.83,1.19c-4.9,1.79-9.66,4-14.52,5.91-10.17,4-18.89-1.8-18.94-12.64,0-9.48-.07-19,0-28.43.08-9.81,8.44-15.66,17.74-12.47a34.18,34.18,0,0,1,6.21,2.55C863.22,777.36,879.81,772.75,896.48,774.09Zm91.59-46.34-36.19,17.17c-14.28,6.79-28.59,13.53-42.82,20.43-1.09.53-2.54,2.45-2.3,3.29q7.82,27.87,16.13,55.6a5.2,5.2,0,0,0,3.76,2.89,13.25,13.25,0,0,0,6.39-1.32c19.62-9.19,39.18-18.51,58.76-27.8,8.77-4.17,17.57-8.29,26.29-12.55,5.07-2.48,5.93-5.76,2.91-10.14q-5.29-7.71-10.63-15.38C1003,749.29,995.63,738.65,988.07,727.75Zm18.93,7.57c9.9-9.94,10.9-30.55,2.34-44.56a40.17,40.17,0,0,0-46.47-17.29c-16.44,5.26-28.78,21.86-27.67,37.56,1.44-.65,2.78-1.24,4.11-1.86q11.64-5.52,23.28-11.06c7.1-3.38,13.63-2.23,19.46,2.74a33,33,0,0,1,5.32,6.21C994,716.43,1000.45,725.87,1007,735.32ZM981.56,718.4c-1.63-2.38-3-4.58-4.59-6.66-3.43-4.54-6.09-5.13-11.25-2.68L910,735.51c-11.06,5.26-11.45,6.17-7.77,18a19.47,19.47,0,0,0,1,2.13ZM865.79,801.09l39.38,3c-1.72-6-3.33-11.38-4.75-16.78-.55-2.1-1.86-2.21-3.61-2.2-7.35.06-14.69,0-22,0h-9Zm-30.5,8.21a9.12,9.12,0,0,0,2.51,0c5.07-2,10.17-4,15.14-6.22.77-.35,1.34-2,1.37-3,.15-4.72,0-9.45.11-14.17.07-2.11-.74-3.07-2.65-3.79-4.07-1.52-8-3.32-12.06-5-3.8-1.55-4.37-1.17-4.42,2.79,0,2,0,4,0,6Z" transform="translate(-658.75 -660.37)"/><path d="M750,813.83c.62-4.42.58-9.07,2-13.22,3.91-11.61,12.34-18.16,24.54-19.44A97.32,97.32,0,0,1,790,781c3.76.12,6,2.59,5.82,5.92-.16,3.16-2.38,5.13-6.07,5.21-3.37.08-6.74,0-10.11,0-10.73.21-17.65,7.14-17.88,17.92-.07,3.61.06,7.23-.05,10.85-.13,4.19-2.24,6.43-5.75,6.34-3.35-.08-5.22-2.24-5.43-6.29,0-.25,0-.5,0-.75v-6.36Z" transform="translate(-658.75 -660.37)"/><path d="M777,829.56c0-4.49-.1-9,0-13.47a15.48,15.48,0,0,1,15-15.13c3.36-.12,6.74-.1,10.1,0,3.59.09,5.92,2.18,6.07,5.29s-2.31,5.69-6,5.87c-2.86.14-5.73,0-8.6.06-3.91.08-5.42,1.54-5.44,5.46-.06,8.36,0,16.71,0,25.07,0,4.08-2.18,6.64-5.47,6.76a5.52,5.52,0,0,1-5.69-5.67C776.88,839,777,834.3,777,829.56Z" transform="translate(-658.75 -660.37)"/><path d="M761.66,855.87c0,3,.12,6,0,8.94-.19,3.71-2.24,5.8-5.44,5.87-3.36.07-5.58-2.09-5.67-6q-.19-8.76,0-17.53c.08-3.85,2.32-6.1,5.61-6.06s5.37,2.32,5.52,6.19c.12,2.86,0,5.72,0,8.58Z" transform="translate(-658.75 -660.37)"/><path d="M750.89,1006.34a5.79,5.79,0,0,1,5.75,5.66,5.59,5.59,0,0,1-5.47,5.47,5.44,5.44,0,0,1-5.66-5.2A5.57,5.57,0,0,1,750.89,1006.34Z" transform="translate(-658.75 -660.37)"/><path d="M893.24,1017.47a5.43,5.43,0,0,1-5.51-5.36,5.59,5.59,0,0,1,5.54-5.78,5.8,5.8,0,0,1,5.59,5.82A5.58,5.58,0,0,1,893.24,1017.47Z" transform="translate(-658.75 -660.37)"/><path d="M805.54,1020.35a5.49,5.49,0,0,1-5.41-5.86,5.61,5.61,0,0,1,5.63-5.31,5.83,5.83,0,0,1,5.51,5.54A5.65,5.65,0,0,1,805.54,1020.35Z" transform="translate(-658.75 -660.37)"/><path d="M940.43,1020.35a5.47,5.47,0,0,1-5.56-5.33,5.58,5.58,0,0,1,5.47-5.84,5.78,5.78,0,0,1,5.65,5.76A5.63,5.63,0,0,1,940.43,1020.35Z" transform="translate(-658.75 -660.37)"/></svg>